<?xml version="1.0" standalone="no"?>
<!DOCTYPE svg PUBLIC "-//W3C//DTD SVG 20010904//EN"
 "http://www.w3.org/TR/2001/REC-SVG-20010904/DTD/svg10.dtd">
<svg version="1.0" xmlns="http://www.w3.org/2000/svg"
 width="819.000000pt" height="186.000000pt" viewBox="0 0 819.000000 186.000000"
 preserveAspectRatio="xMidYMid meet">

<g transform="translate(0.000000,186.000000) scale(0.100000,-0.100000)"
fill="#000000" stroke="none">
<path d="M4328 1799 c-196 -27 -392 -156 -467 -309 -67 -137 -65 -113 -68
-792 l-4 -618 250 0 250 0 3 578 c3 533 4 580 21 610 44 81 186 64 203 -24 4
-20 3 -49 -2 -63 -12 -34 -69 -71 -110 -71 l-34 0 0 -226 0 -227 118 6 c122 6
184 19 267 56 122 54 216 161 257 295 31 101 32 273 1 371 -61 193 -235 359
-423 403 -69 17 -188 22 -262 11z"/>
<path d="M217 1764 c-4 -4 -7 -385 -7 -846 l0 -838 255 0 255 0 2 318 3 317
68 3 67 3 0 219 0 219 -67 3 -68 3 -5 300 -5 300 -246 3 c-135 1 -248 -1 -252
-4z"/>
<path d="M940 925 l0 -845 250 0 250 0 0 845 0 845 -250 0 -250 0 0 -845z"/>
<path d="M2145 1759 c-213 -31 -354 -155 -400 -351 -12 -50 -15 -147 -15 -483
0 -455 4 -494 56 -597 34 -68 116 -148 184 -181 112 -54 153 -60 453 -64 l277
-5 0 241 0 241 -167 1 c-282 1 -313 10 -313 90 0 29 6 42 26 58 25 20 40 21
220 21 l194 0 0 190 0 190 -157 0 c-170 0 -227 10 -243 41 -19 34 -8 80 23
103 26 19 44 21 223 24 l194 4 -2 241 -3 242 -245 1 c-135 1 -272 -2 -305 -7z"/>
<path d="M2950 1180 c0 -651 2 -684 61 -808 39 -81 132 -180 206 -219 95 -51
155 -64 311 -70 l142 -6 0 245 0 245 -61 7 c-78 8 -108 23 -133 66 -20 34 -21
52 -24 583 l-3 547 -250 0 -249 0 0 -590z"/>
<path d="M5297 1764 c-4 -4 -7 -385 -7 -846 l0 -838 255 0 255 0 -2 842 -3
843 -246 3 c-135 1 -248 -1 -252 -4z"/>
<path d="M6505 1759 c-213 -31 -354 -155 -400 -351 -21 -92 -21 -874 0 -966
41 -173 154 -286 340 -338 48 -14 118 -18 338 -21 l277 -5 0 241 0 241 -167 1
c-282 1 -313 10 -313 90 0 29 6 42 26 58 25 20 40 21 220 21 l194 0 0 190 0
190 -157 0 c-170 0 -227 10 -243 41 -19 34 -8 80 23 103 26 19 44 21 223 24
l194 4 -2 241 -3 242 -245 1 c-135 1 -272 -2 -305 -7z"/>
<path d="M7534 624 c-54 -19 -118 -75 -151 -131 -22 -37 -28 -62 -31 -129 -4
-72 -1 -89 20 -135 61 -130 185 -195 325 -169 189 34 293 253 204 428 -27 53
-101 117 -158 136 -57 20 -154 19 -209 0z"/>
</g>
</svg>
