<?xml version="1.0" standalone="no"?>
<!DOCTYPE svg PUBLIC "-//W3C//DTD SVG 20010904//EN"
 "http://www.w3.org/TR/2001/REC-SVG-20010904/DTD/svg10.dtd">
<svg version="1.0" xmlns="http://www.w3.org/2000/svg"
 width="500.000000pt" height="500.000000pt" viewBox="0 0 500.000000 500.000000"
 preserveAspectRatio="xMidYMid meet">

<g transform="translate(0.000000,500.000000) scale(0.100000,-0.100000)"
fill="#000000" stroke="none">
<path d="M2530 3092 c-108 -36 -172 -91 -217 -187 l-28 -60 -3 -362 -3 -363
145 0 145 0 3 341 c3 324 4 341 22 355 48 35 109 6 104 -49 -3 -30 -22 -47
-70 -61 -15 -4 -17 -20 -15 -128 l2 -123 75 2 c103 2 176 30 230 89 61 66 74
103 74 214 1 83 -2 102 -26 152 -33 70 -96 133 -168 166 -73 34 -191 40 -270
14z"/>
<path d="M220 2605 l0 -485 145 0 145 0 0 180 0 180 40 0 40 0 0 129 0 130
-37 3 -38 3 -3 173 -2 172 -145 0 -145 0 0 -485z"/>
<path d="M640 2605 l0 -485 145 0 145 0 0 485 0 485 -145 0 -145 0 0 -485z"/>
<path d="M1307 3079 c-90 -21 -151 -71 -189 -154 -22 -48 -23 -59 -23 -320 0
-261 1 -272 23 -320 30 -66 73 -108 136 -136 45 -21 71 -24 224 -27 l172 -4 0
141 0 141 -119 0 c-66 0 -126 3 -135 6 -19 7 -21 55 -4 72 8 8 50 12 125 12
l113 0 0 110 0 110 -89 0 c-114 0 -141 9 -141 50 0 41 26 50 151 50 l99 0 0
140 0 140 -152 -1 c-84 -1 -170 -5 -191 -10z"/>
<path d="M1800 2741 c0 -319 2 -354 20 -413 25 -80 73 -138 146 -174 44 -21
74 -28 150 -32 l94 -5 0 140 0 140 -41 6 c-76 10 -74 -2 -77 362 l-3 325 -144
0 -145 0 0 -349z"/>
<path d="M3150 2605 l0 -485 145 0 145 0 -2 483 -3 482 -142 3 -143 3 0 -486z"/>
<path d="M3817 3079 c-120 -28 -185 -101 -208 -233 -15 -89 -7 -496 12 -549
19 -57 80 -121 141 -148 47 -21 71 -24 226 -27 l172 -4 0 141 0 141 -119 0
c-66 0 -126 3 -135 6 -19 7 -21 55 -4 72 8 8 50 12 125 12 l113 0 0 109 0 109
-106 4 c-91 3 -108 6 -120 22 -17 24 -17 28 0 52 13 16 29 19 130 22 l116 4 0
139 0 139 -152 -1 c-84 -1 -170 -5 -191 -10z"/>
<path d="M4422 2423 c-83 -41 -117 -151 -71 -233 42 -74 130 -107 204 -76 52
22 74 43 96 91 24 52 24 89 -2 142 -39 81 -145 117 -227 76z"/>
</g>
</svg>
