<?xml version="1.0" standalone="no"?>
<!DOCTYPE svg PUBLIC "-//W3C//DTD SVG 20010904//EN"
 "http://www.w3.org/TR/2001/REC-SVG-20010904/DTD/svg10.dtd">
<svg version="1.0" xmlns="http://www.w3.org/2000/svg"
 width="162.000000pt" height="140.000000pt" viewBox="0 0 162.000000 140.000000"
 preserveAspectRatio="xMidYMid meet">

<g transform="translate(0.000000,140.000000) scale(0.100000,-0.100000)"
fill="#000000" stroke="none">
<path d="M120 730 l0 -530 160 0 160 0 0 200 0 200 45 0 45 0 0 140 0 140 -45
0 -45 0 0 190 0 190 -160 0 -160 0 0 -530z"/>
<path d="M580 730 l0 -530 160 0 160 0 0 530 0 530 -160 0 -160 0 0 -530z"/>
<path d="M1265 555 c-5 -2 -22 -6 -37 -9 -39 -9 -88 -54 -109 -101 -36 -78
-19 -156 44 -212 69 -60 154 -67 229 -18 108 71 103 250 -9 311 -37 21 -98 36
-118 29z"/>
</g>
</svg>
